<svg width="137" height="35" viewBox="0 0 137 35" fill="none" xmlns="http://www.w3.org/2000/svg">
<g clip-path="url(#clip0)">
<path d="M63.3062 6.90638V10.7173H55.3505V14.8343H61.3034V18.534H55.3505V26.4341H50.5937V6.90638H63.3062ZM68.1986 9.29866C67.3641 9.29866 66.6779 9.05758 66.1401 8.57541C65.6209 8.0747 65.3612 7.46272 65.3612 6.73947C65.3612 5.99768 65.6209 5.3857 66.1401 4.90354C66.6779 4.40283 67.3641 4.15247 68.1986 4.15247C69.0146 4.15247 69.6822 4.40283 70.2014 4.90354C70.7392 5.3857 71.0081 5.99768 71.0081 6.73947C71.0081 7.46272 70.7392 8.0747 70.2014 8.57541C69.6822 9.05758 69.0146 9.29866 68.1986 9.29866ZM70.5631 10.9121V26.4341H65.8063V10.9121H70.5631ZM78.767 13.4991C79.3233 12.646 80.0187 11.9784 80.8533 11.4962C81.6878 10.9955 82.615 10.7452 83.635 10.7452V15.7801H82.3276C81.1407 15.7801 80.2505 16.0397 79.6571 16.559C79.0637 17.0597 78.767 17.9498 78.767 19.2294V26.4341H74.0102V10.9121H78.767V13.4991ZM100.54 18.4227C100.54 18.8678 100.513 19.3314 100.457 19.8136H89.6918C89.7659 20.7779 90.0719 21.5197 90.6097 22.039C91.1661 22.5397 91.843 22.79 92.6404 22.79C93.8272 22.79 94.6525 22.2893 95.1161 21.2879H100.179C99.9192 22.3079 99.4463 23.2258 98.7602 24.0418C98.0926 24.8578 97.2488 25.4976 96.2288 25.9612C95.2088 26.4248 94.0683 26.6566 92.8073 26.6566C91.2866 26.6566 89.9328 26.3321 88.746 25.683C87.5591 25.0339 86.6319 24.1067 85.9642 22.9013C85.2966 21.6959 84.9628 20.2865 84.9628 18.6731C84.9628 17.0597 85.2874 15.6503 85.9364 14.4449C86.604 13.2394 87.5313 12.3122 88.7181 11.6631C89.905 11.0141 91.2681 10.6895 92.8073 10.6895C94.3094 10.6895 95.6446 11.0048 96.813 11.6353C97.9813 12.2658 98.89 13.1653 99.5391 14.3336C100.207 15.5019 100.54 16.865 100.54 18.4227ZM95.6725 17.1709C95.6725 16.355 95.3943 15.7059 94.8379 15.2237C94.2816 14.7416 93.5862 14.5005 92.7516 14.5005C91.9542 14.5005 91.2773 14.7323 90.721 15.1959C90.1832 15.6595 89.8494 16.3179 89.7196 17.1709H95.6725ZM102.104 18.6731C102.104 17.0597 102.429 15.6503 103.078 14.4449C103.745 13.2394 104.663 12.3122 105.832 11.6631C107.018 11.0141 108.372 10.6895 109.893 10.6895C111.84 10.6895 113.463 11.1995 114.761 12.2195C116.078 13.2394 116.94 14.6767 117.348 16.5311H112.285C111.859 15.3443 111.033 14.7508 109.809 14.7508C108.938 14.7508 108.242 15.0939 107.723 15.7801C107.204 16.4477 106.944 17.412 106.944 18.6731C106.944 19.9341 107.204 20.9077 107.723 21.5939C108.242 22.2615 108.938 22.5953 109.809 22.5953C111.033 22.5953 111.859 22.0019 112.285 20.815H117.348C116.94 22.6324 116.078 24.0603 114.761 25.0989C113.444 26.1374 111.822 26.6566 109.893 26.6566C108.372 26.6566 107.018 26.3321 105.832 25.683C104.663 25.0339 103.745 24.1067 103.078 22.9013C102.429 21.6959 102.104 20.2865 102.104 18.6731ZM129.378 26.4341L124.649 19.9248V26.4341H119.892V5.84932H124.649V17.2266L129.35 10.9121H135.22L128.766 18.7009L135.275 26.4341H129.378Z" fill="white"/>
<path d="M12.517 20.3472L32.8742 4.35897C33.7558 3.66656 35.0329 4.39498 34.8856 5.5063L31.5437 30.7318C31.4286 31.6007 30.4783 32.0845 29.708 31.6663L12.6927 22.429C11.9027 22.0001 11.8101 20.9024 12.517 20.3472Z" fill="#21B9B0"/>
<path d="M1.61262 17.4949L21.9698 1.50668C22.8514 0.814263 24.1284 1.54269 23.9812 2.65401L20.6393 27.8795C20.5242 28.7484 19.5739 29.2322 18.8036 28.814L1.78833 19.5767C0.998274 19.1478 0.905634 18.0501 1.61262 17.4949Z" fill="#21B9B0"/>
<path d="M11.0217 32.4805L11.0217 2.89193C11.0217 1.21039 13.0641 0.378797 14.2387 1.58211L34.556 22.3964C35.4744 23.3373 35.1646 24.9065 33.9576 25.4278L13.6403 34.202C12.4023 34.7366 11.0217 33.829 11.0217 32.4805Z" fill="#40FDE6"/>
</g>
<defs>
<clipPath id="clip0">
<rect width="136" height="34" fill="white" transform="translate(0.117126 0.41748)"/>
</clipPath>
</defs>
</svg>
